<mxfile host="app.diagrams.net" modified="2023-12-24T13:14:37.410Z" agent="Mozilla/5.0 (Windows NT 10.0; Win64; x64) AppleWebKit/537.36 (KHTML, like Gecko) Chrome/118.0.0.0 YaBrowser/23.11.0.0 Safari/537.36" etag="3hB6rU2PUQELcjxrfivN" version="22.1.11" type="github">
  <diagram id="C5RBs43oDa-KdzZeNtuy" name="Page-1">
    <mxGraphModel dx="1155" dy="653" grid="0" gridSize="10" guides="1" tooltips="1" connect="1" arrows="1" fold="1" page="1" pageScale="1" pageWidth="827" pageHeight="1169" background="#1A1A1A" math="0" shadow="0">
      <root>
        <mxCell id="WIyWlLk6GJQsqaUBKTNV-0" />
        <mxCell id="WIyWlLk6GJQsqaUBKTNV-1" parent="WIyWlLk6GJQsqaUBKTNV-0" />
        <mxCell id="WIyWlLk6GJQsqaUBKTNV-2" value="" style="rounded=1;html=1;jettySize=auto;orthogonalLoop=1;fontSize=11;endArrow=block;endFill=0;endSize=8;strokeWidth=3;shadow=0;labelBackgroundColor=none;edgeStyle=orthogonalEdgeStyle;entryX=0.5;entryY=0;entryDx=0;entryDy=0;strokeColor=#B3B3B3;fontColor=default;" parent="WIyWlLk6GJQsqaUBKTNV-1" target="Jl2_BG84_52wTeyhShvm-0" edge="1">
          <mxGeometry relative="1" as="geometry">
            <mxPoint x="288.65999999999997" y="104" as="sourcePoint" />
            <mxPoint x="288.65999999999997" y="194" as="targetPoint" />
          </mxGeometry>
        </mxCell>
        <mxCell id="WIyWlLk6GJQsqaUBKTNV-3" value="Связь Revit модели с расчетами в Excel" style="rounded=1;whiteSpace=wrap;html=1;fontSize=12;glass=0;strokeWidth=1;shadow=0;labelBackgroundColor=none;fillColor=#09555B;strokeColor=#BAC8D3;fontColor=#EEEEEE;fontFamily=Times New Roman;" parent="WIyWlLk6GJQsqaUBKTNV-1" vertex="1">
          <mxGeometry x="229" y="74" width="120" height="40" as="geometry" />
        </mxCell>
        <mxCell id="WIyWlLk6GJQsqaUBKTNV-5" value="No" style="edgeStyle=orthogonalEdgeStyle;rounded=1;html=1;jettySize=auto;orthogonalLoop=1;fontSize=14;endArrow=block;endFill=0;endSize=8;strokeWidth=3;shadow=0;labelBackgroundColor=none;strokeColor=#B3B3B3;fontColor=#E6E6E6;fontFamily=Times New Roman;" parent="WIyWlLk6GJQsqaUBKTNV-1" target="WIyWlLk6GJQsqaUBKTNV-7" edge="1">
          <mxGeometry x="0.016" y="10" relative="1" as="geometry">
            <mxPoint as="offset" />
            <mxPoint x="389" y="194" as="sourcePoint" />
          </mxGeometry>
        </mxCell>
        <mxCell id="WIyWlLk6GJQsqaUBKTNV-7" value="Создать или найти на сторонних ресурсах" style="rounded=1;whiteSpace=wrap;html=1;fontSize=12;glass=0;strokeWidth=1;shadow=0;labelBackgroundColor=none;fillColor=#09555B;strokeColor=#BAC8D3;fontColor=#EEEEEE;fontFamily=Times New Roman;" parent="WIyWlLk6GJQsqaUBKTNV-1" vertex="1">
          <mxGeometry x="479" y="164" width="121" height="60" as="geometry" />
        </mxCell>
        <mxCell id="Jl2_BG84_52wTeyhShvm-0" value="Есть 3D модель козырька с параметризацией (вынос, длина и толщина стекла, высота креплений, количество вант)?" style="rounded=1;whiteSpace=wrap;html=1;fontSize=12;glass=0;strokeWidth=1;shadow=0;labelBackgroundColor=none;fillColor=#09555B;strokeColor=#BAC8D3;fontColor=#EEEEEE;fontFamily=Times New Roman;" vertex="1" parent="WIyWlLk6GJQsqaUBKTNV-1">
          <mxGeometry x="189" y="154" width="200" height="80" as="geometry" />
        </mxCell>
        <mxCell id="Jl2_BG84_52wTeyhShvm-2" value="Есть плагин Bumblebee для синхронизации c Microsoft Excel?&lt;br&gt;" style="rounded=1;whiteSpace=wrap;html=1;fontSize=12;glass=0;strokeWidth=1;shadow=0;labelBackgroundColor=none;fillColor=#09555B;strokeColor=#BAC8D3;fontColor=#EEEEEE;fontFamily=Times New Roman;" vertex="1" parent="WIyWlLk6GJQsqaUBKTNV-1">
          <mxGeometry x="193.5" y="294" width="191" height="66" as="geometry" />
        </mxCell>
        <mxCell id="Jl2_BG84_52wTeyhShvm-5" value="Создание нодов, связующих результаты расчета в Excel c параметрами модели в Revit" style="ellipse;whiteSpace=wrap;html=1;align=center;newEdgeStyle={&quot;edgeStyle&quot;:&quot;entityRelationEdgeStyle&quot;,&quot;startArrow&quot;:&quot;none&quot;,&quot;endArrow&quot;:&quot;none&quot;,&quot;segment&quot;:10,&quot;curved&quot;:1,&quot;sourcePerimeterSpacing&quot;:0,&quot;targetPerimeterSpacing&quot;:0};treeFolding=0;treeMoving=1;rounded=1;labelBackgroundColor=none;fillColor=#09555B;strokeColor=#BAC8D3;fontColor=#EEEEEE;fontFamily=Times New Roman;connectable=1;allowArrows=1;" vertex="1" parent="WIyWlLk6GJQsqaUBKTNV-1">
          <mxGeometry x="189" y="410" width="200" height="80" as="geometry" />
        </mxCell>
        <mxCell id="Jl2_BG84_52wTeyhShvm-20" value="вынос, длина и толщина стекла, высота креплений, количество вант" style="shape=table;startSize=50;container=1;collapsible=0;childLayout=tableLayout;fixedRows=1;rowLines=1;fontStyle=0;strokeColor=#BAC8D3;fontSize=11;swimlaneFillColor=none;strokeWidth=1;perimeterSpacing=0;swimlaneLine=1;shadow=0;rounded=1;whiteSpace=wrap;labelBackgroundColor=none;fillColor=#09555B;fontColor=#EEEEEE;fontFamily=Times New Roman;" vertex="1" parent="WIyWlLk6GJQsqaUBKTNV-1">
          <mxGeometry x="149" y="540" width="280" height="150" as="geometry" />
        </mxCell>
        <mxCell id="Jl2_BG84_52wTeyhShvm-21" value="" style="shape=tableRow;horizontal=0;startSize=0;swimlaneHead=0;swimlaneBody=0;top=0;left=0;bottom=0;right=0;collapsible=0;dropTarget=0;fillColor=none;points=[[0,0.5],[1,0.5]];portConstraint=eastwest;strokeColor=#BAC8D3;fontSize=11;rounded=1;labelBackgroundColor=none;fontColor=#EEEEEE;" vertex="1" parent="Jl2_BG84_52wTeyhShvm-20">
          <mxGeometry y="50" width="280" height="50" as="geometry" />
        </mxCell>
        <mxCell id="Jl2_BG84_52wTeyhShvm-22" value="1" style="shape=partialRectangle;html=1;whiteSpace=wrap;connectable=0;fillColor=none;top=0;left=0;bottom=0;right=0;overflow=hidden;pointerEvents=1;strokeColor=#BAC8D3;fontSize=11;rounded=1;labelBackgroundColor=none;fontColor=#EEEEEE;" vertex="1" parent="Jl2_BG84_52wTeyhShvm-21">
          <mxGeometry width="30" height="50" as="geometry">
            <mxRectangle width="30" height="50" as="alternateBounds" />
          </mxGeometry>
        </mxCell>
        <mxCell id="Jl2_BG84_52wTeyhShvm-23" value="Подключение ячейки результата данного параметра через нод:Read Excel" style="shape=partialRectangle;html=1;whiteSpace=wrap;connectable=0;fillColor=none;top=0;left=0;bottom=0;right=0;align=left;spacingLeft=6;overflow=hidden;strokeColor=#BAC8D3;fontSize=11;rounded=1;labelBackgroundColor=none;fontColor=#EEEEEE;" vertex="1" parent="Jl2_BG84_52wTeyhShvm-21">
          <mxGeometry x="30" width="250" height="50" as="geometry">
            <mxRectangle width="250" height="50" as="alternateBounds" />
          </mxGeometry>
        </mxCell>
        <mxCell id="Jl2_BG84_52wTeyhShvm-24" value="" style="shape=tableRow;horizontal=0;startSize=0;swimlaneHead=0;swimlaneBody=0;top=0;left=0;bottom=0;right=0;collapsible=0;dropTarget=0;fillColor=none;points=[[0,0.5],[1,0.5]];portConstraint=eastwest;strokeColor=#BAC8D3;fontSize=11;rounded=1;labelBackgroundColor=none;fontColor=#EEEEEE;" vertex="1" parent="Jl2_BG84_52wTeyhShvm-20">
          <mxGeometry y="100" width="280" height="50" as="geometry" />
        </mxCell>
        <mxCell id="Jl2_BG84_52wTeyhShvm-25" value="2" style="shape=partialRectangle;html=1;whiteSpace=wrap;connectable=0;fillColor=none;top=0;left=0;bottom=0;right=0;overflow=hidden;strokeColor=#BAC8D3;fontSize=11;rounded=1;labelBackgroundColor=none;fontColor=#EEEEEE;" vertex="1" parent="Jl2_BG84_52wTeyhShvm-24">
          <mxGeometry width="30" height="50" as="geometry">
            <mxRectangle width="30" height="50" as="alternateBounds" />
          </mxGeometry>
        </mxCell>
        <mxCell id="Jl2_BG84_52wTeyhShvm-26" value="Назначение результата в параметр выноса стекла 3D модели через нод: Element.SetParametrByName" style="shape=partialRectangle;html=1;whiteSpace=wrap;connectable=0;fillColor=none;top=0;left=0;bottom=0;right=0;align=left;spacingLeft=6;overflow=hidden;strokeColor=#BAC8D3;fontSize=11;rounded=1;labelBackgroundColor=none;fontColor=#EEEEEE;" vertex="1" parent="Jl2_BG84_52wTeyhShvm-24">
          <mxGeometry x="30" width="250" height="50" as="geometry">
            <mxRectangle width="250" height="50" as="alternateBounds" />
          </mxGeometry>
        </mxCell>
        <mxCell id="Jl2_BG84_52wTeyhShvm-48" value="Yes" style="rounded=1;html=1;jettySize=auto;orthogonalLoop=1;fontSize=14;endArrow=block;endFill=0;endSize=8;strokeWidth=3;shadow=0;labelBackgroundColor=none;edgeStyle=orthogonalEdgeStyle;strokeColor=#B3B3B3;fontColor=#E6E6E6;fontFamily=Times New Roman;" edge="1" parent="WIyWlLk6GJQsqaUBKTNV-1">
          <mxGeometry y="20" relative="1" as="geometry">
            <mxPoint as="offset" />
            <mxPoint x="288.5" y="234" as="sourcePoint" />
            <mxPoint x="288.5" y="294" as="targetPoint" />
          </mxGeometry>
        </mxCell>
        <mxCell id="Jl2_BG84_52wTeyhShvm-49" value="Установить плагин Bumblebee&lt;br&gt;&amp;nbsp;через установщик пакетов Dynamo" style="rounded=1;whiteSpace=wrap;html=1;fontSize=12;glass=0;strokeWidth=1;shadow=0;labelBackgroundColor=none;fillColor=#09555B;strokeColor=#BAC8D3;fontColor=#EEEEEE;fontFamily=Times New Roman;" vertex="1" parent="WIyWlLk6GJQsqaUBKTNV-1">
          <mxGeometry x="479" y="294" width="121" height="66" as="geometry" />
        </mxCell>
        <mxCell id="Jl2_BG84_52wTeyhShvm-50" value="No" style="edgeStyle=orthogonalEdgeStyle;rounded=1;html=1;jettySize=auto;orthogonalLoop=1;fontSize=14;endArrow=block;endFill=0;endSize=8;strokeWidth=3;shadow=0;labelBackgroundColor=none;strokeColor=#B3B3B3;fontColor=#E6E6E6;fontFamily=Times New Roman;" edge="1" parent="WIyWlLk6GJQsqaUBKTNV-1">
          <mxGeometry x="0.016" y="10" relative="1" as="geometry">
            <mxPoint as="offset" />
            <mxPoint x="384.5" y="326.58" as="sourcePoint" />
            <mxPoint x="474.5" y="326.58" as="targetPoint" />
          </mxGeometry>
        </mxCell>
        <mxCell id="Jl2_BG84_52wTeyhShvm-53" value="" style="rounded=1;html=1;jettySize=auto;orthogonalLoop=1;fontSize=11;endArrow=block;endFill=0;endSize=8;strokeWidth=3;shadow=0;labelBackgroundColor=none;edgeStyle=orthogonalEdgeStyle;entryX=0.5;entryY=0;entryDx=0;entryDy=0;strokeColor=#B3B3B3;fontColor=default;" edge="1" parent="WIyWlLk6GJQsqaUBKTNV-1">
          <mxGeometry relative="1" as="geometry">
            <mxPoint x="288.56" y="360" as="sourcePoint" />
            <mxPoint x="288.90000000000003" y="410" as="targetPoint" />
          </mxGeometry>
        </mxCell>
        <mxCell id="Jl2_BG84_52wTeyhShvm-54" value="" style="rounded=1;html=1;jettySize=auto;orthogonalLoop=1;fontSize=11;endArrow=block;endFill=0;endSize=8;strokeWidth=3;shadow=0;labelBackgroundColor=none;edgeStyle=orthogonalEdgeStyle;entryX=0.5;entryY=0;entryDx=0;entryDy=0;strokeColor=#B3B3B3;fontColor=default;" edge="1" parent="WIyWlLk6GJQsqaUBKTNV-1">
          <mxGeometry relative="1" as="geometry">
            <mxPoint x="288.56" y="490" as="sourcePoint" />
            <mxPoint x="288.90000000000003" y="540" as="targetPoint" />
          </mxGeometry>
        </mxCell>
      </root>
    </mxGraphModel>
  </diagram>
</mxfile>
